<svg xmlns="http://www.w3.org/2000/svg" version="1.1" xmlns:xlink="http://www.w3.org/1999/xlink" width="1500" height="1500" viewBox="0 0 1500 1500"><rect width="1500" height="1500" x="0" y="0" id="background" stroke="transparent" fill="#ffffff"></rect><svg xml:space="preserve" width="1000" height="1000" data-version="2" data-id="lg_tFxTxqjXHtXrYoW5uO" viewBox="0 0 565 172" x="250" y="250"><rect width="100%" height="100%" fill="transparent"></rect><path fill="#001f3f" d="M5.375 159.307v-36.11h14.13q5.71 0 9.87 2.04 4.15 2.04 6.42 6.07 2.27 4.03 2.27 10.1 0 5.91-2.19 9.89-2.19 3.98-6.33 5.99-4.13 2.02-9.94 2.02Zm9.23-8.52h5.1q3.42 0 5.38-1.2 1.97-1.2 2.81-3.34.84-2.14.84-4.95 0-2.7-.82-4.87-.81-2.16-2.85-3.41t-5.72-1.25h-4.74Z"></path><rect width="32.69" height="36.11" x="-16.34" y="-18.05" fill="none" rx="0" ry="0" transform="translate(22.22 141.75)"></rect><path fill="#001f3f" d="M56.425 159.717q-3.98 0-7.16-1.59-3.19-1.58-5.08-4.66-1.89-3.09-1.89-7.52 0-4.54 1.92-7.68 1.91-3.14 5.07-4.77 3.16-1.63 6.99-1.63 3.93 0 7.06 1.68 3.14 1.69 5 4.85 1.86 3.16 1.86 7.7 0 4.38-1.78 7.44-1.79 3.06-4.9 4.62-3.11 1.56-7.09 1.56m-.15-8.37q1.94 0 3.06-.81 1.12-.82 1.58-2.07.46-1.25.46-2.47 0-1.23-.46-2.55-.46-1.33-1.56-2.25-1.09-.92-3.08-.92-1.94 0-3.09.92-1.14.92-1.6 2.22-.46 1.3-.46 2.58 0 1.27.48 2.52.49 1.25 1.61 2.04t3.06.79"></path><rect width="27.9" height="27.85" x="-13.95" y="-13.93" fill="none" rx="0" ry="0" transform="translate(56.74 146.3)"></rect><path fill="#001f3f" d="M87.745 159.717q-4.08 0-7.09-1.64-3.01-1.63-4.67-4.71-1.66-3.09-1.66-7.42 0-4.49 1.71-7.63 1.71-3.14 4.77-4.79 3.06-1.66 7.09-1.66 3.62 0 6.42 1.33 2.81 1.32 4.44 3.82 1.63 2.5 1.74 6.12h-8.67q-.31-1.48-1.36-2.24-1.04-.77-2.52-.77-1.84 0-2.86.95-1.02.94-1.42 2.29-.41 1.35-.41 2.58 0 1.37.46 2.65.46 1.27 1.48 2.09 1.02.81 2.7.81 1.63 0 2.65-.79t1.28-2.16h8.97q-.1 3.67-1.89 6.14-1.78 2.48-4.69 3.75-2.9 1.28-6.47 1.28"></path><rect width="26.47" height="27.85" x="-13.23" y="-13.93" fill="none" rx="0" ry="0" transform="translate(88.06 146.3)"></rect><path fill="#001f3f" d="M117.265 159.657q-4.74 0-7.24-2.7t-2.5-7.24v-9.23h-3.77v-8.06h3.77v-6.73h9.03v6.73h8.06v8.06h-8.06v7.14q0 1.12.38 1.91.39.79 1.18 1.2.79.41 1.96.41 1.27 0 2.09-.38.82-.39 1.33-.8l2.44 7.09q-1.17.97-2.72 1.56-1.56.59-3.12.82-1.55.22-2.83.22"></path><rect width="22.18" height="33.96" x="-11.09" y="-16.98" fill="none" rx="0" ry="0" transform="translate(115.34 143.18)"></rect><path fill="#001f3f" d="M142.565 159.717q-3.98 0-7.17-1.59-3.18-1.58-5.07-4.66-1.89-3.09-1.89-7.52 0-4.54 1.92-7.68 1.91-3.14 5.07-4.77 3.16-1.63 6.99-1.63 3.92 0 7.06 1.68 3.14 1.69 5 4.85 1.86 3.16 1.86 7.7 0 4.38-1.78 7.44-1.79 3.06-4.9 4.62-3.11 1.56-7.09 1.56m-.15-8.37q1.94 0 3.06-.81 1.12-.82 1.58-2.07.46-1.25.46-2.47 0-1.23-.46-2.55-.46-1.33-1.56-2.25-1.09-.92-3.08-.92-1.94 0-3.09.92t-1.6 2.22q-.46 1.3-.46 2.58 0 1.27.48 2.52.49 1.25 1.61 2.04t3.06.79"></path><rect width="27.9" height="27.85" x="-13.95" y="-13.93" fill="none" rx="0" ry="0" transform="translate(142.88 146.3)"></rect><path fill="#001f3f" d="M161.485 159.307v-26.88h7.91l.61 2.55q1.02-1.48 2.24-2.14 1.23-.66 2.45-.82 1.22-.15 2.24-.15.87 0 1.59.03.71.02.91.07v8.72h-1.73q-1.89 0-3.55.49-1.65.48-2.65 1.83-.99 1.35-.99 4.06v12.24Z"></path><rect width="17.95" height="27.44" x="-8.97" y="-13.72" fill="none" rx="0" ry="0" transform="translate(170.96 146.09)"></rect><path fill="#001f3f" d="M194.075 159.717q-1.99 0-4.03-.46t-3.8-1.53q-1.76-1.07-2.98-2.94-1.23-1.86-1.63-4.66h9.13q.2.66.73 1.17.54.51 1.33.79t1.71.28q.61 0 1.1-.1.48-.1.84-.33.35-.23.53-.54.18-.3.18-.66 0-.71-.56-1.05-.56-.33-1.53-.51-.97-.17-2.19-.43-1.89-.41-4.06-1.04-2.16-.64-3.64-1.61-.77-.51-1.3-1.15-.54-.64-.87-1.4-.33-.77-.49-1.58-.15-.82-.15-1.74 0-2.34 1.05-3.95 1.04-1.61 2.7-2.57 1.66-.97 3.67-1.41 2.02-.43 3.95-.43 2.86 0 5.33.92 2.48.92 4.13 2.96 1.66 2.04 2.07 5.4h-8.72q-.1-.92-1-1.43-.89-.51-2.16-.51-.51 0-.95.11-.43.1-.76.25t-.51.41q-.18.25-.18.56 0 .2.13.46.13.25.48.48.36.23.97.44 1.68.4 3.19.71 1.5.31 3.03.61 1.69.31 3.32 1.05t2.73 2.22q1.09 1.48 1.09 4.13 0 2.6-1.07 4.36-1.07 1.76-2.83 2.78-1.76 1.02-3.85 1.48-2.09.46-4.13.46"></path><rect width="24.32" height="27.85" x="-12.16" y="-13.93" fill="none" rx="0" ry="0" transform="translate(194.3 146.3)"></rect><path fill="#001f3f" d="m224.215 159.307 14.49-36.11h9.38l14.33 36.11h-9.94l-1.79-5.1h-14.74l-1.83 5.1Zm14.64-13.42h8.92l-4.38-12.39Z"></path><rect width="38.2" height="36.11" x="-19.1" y="-18.05" fill="none" rx="0" ry="0" transform="translate(243.81 141.75)"></rect><path fill="#001f3f" d="M265.935 169.557v-37.13h8.36l.46 2.96q1.84-1.99 3.78-2.76 1.93-.76 4.38-.76 3.88 0 6.48 1.86 2.6 1.86 3.93 5 1.32 3.14 1.32 7.01 0 3.98-1.4 7.14-1.4 3.16-4.13 5-2.73 1.84-6.66 1.84-1.58 0-3.03-.39-1.45-.38-2.6-.99-1.15-.61-1.86-1.33v12.55Zm14.69-18.06q2.04 0 3.16-.86 1.12-.87 1.55-2.14.44-1.28.44-2.45 0-1.38-.51-2.76-.51-1.37-1.66-2.27-1.15-.89-3.14-.89-1.83 0-3.06.84-1.22.84-1.83 2.15-.61 1.3-.61 2.72 0 1.38.58 2.68.59 1.3 1.84 2.14 1.25.84 3.24.84"></path><rect width="28.71" height="37.69" x="-14.36" y="-18.84" fill="none" rx="0" ry="0" transform="translate(280.79 151.21)"></rect><path fill="#001f3f" d="M299.795 169.557v-37.13h8.37l.46 2.96q1.83-1.99 3.77-2.76 1.94-.76 4.39-.76 3.87 0 6.47 1.86 2.6 1.86 3.93 5 1.33 3.14 1.33 7.01 0 3.98-1.41 7.14-1.4 3.16-4.13 5-2.73 1.84-6.65 1.84-1.58 0-3.04-.39-1.45-.38-2.6-.99-1.15-.61-1.86-1.33v12.55Zm14.69-18.06q2.04 0 3.16-.86 1.13-.87 1.56-2.14.43-1.28.43-2.45 0-1.38-.51-2.76-.51-1.37-1.66-2.27-1.14-.89-3.13-.89-1.84 0-3.06.84-1.23.84-1.84 2.15-.61 1.3-.61 2.72 0 1.38.59 2.68.58 1.3 1.83 2.14 1.25.84 3.24.84"></path><rect width="28.72" height="37.69" x="-14.36" y="-18.84" fill="none" rx="0" ry="0" transform="translate(314.65 151.21)"></rect><path fill="#001f3f" d="M346.765 159.717q-3.97 0-7.16-1.59-3.19-1.58-5.08-4.66-1.88-3.09-1.88-7.52 0-4.54 1.91-7.68 1.91-3.14 5.07-4.77 3.17-1.63 6.99-1.63 3.93 0 7.06 1.68 3.14 1.69 5 4.85 1.86 3.16 1.86 7.7 0 4.38-1.78 7.44-1.79 3.06-4.9 4.62-3.11 1.56-7.09 1.56m-.15-8.37q1.94 0 3.06-.81 1.12-.82 1.58-2.07.46-1.25.46-2.47 0-1.23-.46-2.55-.46-1.33-1.55-2.25-1.1-.92-3.09-.92-1.94 0-3.08.92-1.15.92-1.61 2.22-.46 1.3-.46 2.58 0 1.27.48 2.52.49 1.25 1.61 2.04t3.06.79"></path><rect width="27.89" height="27.85" x="-13.95" y="-13.93" fill="none" rx="0" ry="0" transform="translate(347.09 146.3)"></rect><path fill="#001f3f" d="M365.695 159.307v-26.88h9.02v26.88Zm4.53-28.72q-2.44 0-3.95-1.45-1.5-1.45-1.5-3.8 0-2.4 1.58-3.93 1.58-1.53 3.93-1.53 2.24 0 3.82 1.46 1.58 1.45 1.58 3.95 0 2.4-1.5 3.85-1.51 1.45-3.96 1.45"></path><rect width="10.91" height="39.43" x="-5.46" y="-19.71" fill="none" rx="0" ry="0" transform="translate(370.73 140.1)"></rect><path fill="#001f3f" d="M380.935 159.307v-26.88h8.32l.51 2.45q1.27-1.33 2.73-1.96 1.45-.64 2.83-.85 1.37-.2 2.34-.2 3.78 0 5.94 1.73 2.17 1.74 3.09 4.59.92 2.86.92 6.28v14.84h-9.03v-14.08q0-.81-.18-1.71-.18-.89-.61-1.65-.43-.77-1.2-1.25-.76-.49-1.99-.49-1.58 0-2.62.72-1.05.71-1.53 1.91-.49 1.2-.49 2.68v13.87Z"></path><rect width="26.68" height="27.44" x="-13.34" y="-13.72" fill="none" rx="0" ry="0" transform="translate(394.77 146.09)"></rect><path fill="#001f3f" d="M426.635 159.307q-3.57 0-6.09-.77-2.53-.76-3.88-2.73-1.35-1.96-1.35-5.68v-9.64h-3.72v-8.06h3.72v-6.68h9.03v6.68h4.94v8.06h-4.94v8.26q0 .97.33 1.71t1.91.74h2.4v8.11Z"></path><rect width="17.69" height="33.56" x="-8.85" y="-16.78" fill="none" rx="0" ry="0" transform="translate(420.94 143.03)"></rect><path fill="#001f3f" d="M433.575 159.307v-26.88h7.95l.82 2.86q1.17-1.58 2.52-2.3 1.35-.71 2.58-.89 1.22-.18 1.94-.18 2.14 0 4.05.74 1.91.74 3.19 2.88 1.17-1.53 2.52-2.29 1.35-.77 2.71-1.05 1.35-.28 2.57-.28 3.27 0 5.25 1.33 1.99 1.32 2.94 3.72.94 2.4.94 5.66v16.68h-9.03v-15q0-.61-.07-1.32-.08-.72-.39-1.35-.3-.64-.86-1.07-.56-.44-1.58-.44-1.07 0-1.74.41-.66.41-1.04 1.07-.39.66-.54 1.51-.15.84-.15 1.7v14.49h-9.03v-15.05q0-.56-.1-1.25t-.41-1.35q-.3-.66-.94-1.09-.64-.44-1.76-.44-1.58 0-2.3.87-.71.87-.86 2.04-.16 1.17-.16 2.04v14.23Z"></path><rect width="39.98" height="27.39" x="-19.99" y="-13.7" fill="none" rx="0" ry="0" transform="translate(454.06 146.11)"></rect><path fill="#001f3f" d="M492.225 159.717q-4.13 0-7.22-1.66t-4.79-4.72q-1.71-3.06-1.71-7.29 0-4.24 1.73-7.42 1.74-3.19 4.85-4.98 3.11-1.78 7.24-1.78 2.96 0 5.3.92 2.35.92 4.03 2.65 1.68 1.73 2.58 4.18.89 2.45.89 5.51 0 .87-.08 1.66-.07.79-.28 1.65h-17.34q.1.97.64 1.84.54.87 1.5 1.38.97.51 2.45.51 1.23 0 2.12-.28.89-.28 1.45-.74.56-.46.72-.92h8.82q-.71 3.31-2.63 5.43-1.91 2.12-4.59 3.09-2.67.97-5.68.97m-4.64-17.14h9.07q0-.77-.43-1.61-.43-.84-1.43-1.4-.99-.56-2.62-.56-1.59 0-2.61.56-1.02.56-1.5 1.4-.48.84-.48 1.61"></path><rect width="26.62" height="27.85" x="-13.31" y="-13.93" fill="none" rx="0" ry="0" transform="translate(492.31 146.3)"></rect><path fill="#001f3f" d="M510.275 159.307v-26.88h8.31l.51 2.45q1.28-1.33 2.73-1.96 1.46-.64 2.83-.85 1.38-.2 2.35-.2 3.77 0 5.94 1.73 2.17 1.74 3.09 4.59.91 2.86.91 6.28v14.84h-9.02v-14.08q0-.81-.18-1.71-.18-.89-.61-1.65-.44-.77-1.2-1.25-.77-.49-1.99-.49-1.58 0-2.63.72-1.04.71-1.53 1.91-.48 1.2-.48 2.68v13.87Z"></path><rect width="26.67" height="27.44" x="-13.34" y="-13.72" fill="none" rx="0" ry="0" transform="translate(524.11 146.09)"></rect><path fill="#001f3f" d="M555.975 159.307q-3.57 0-6.1-.77-2.52-.76-3.87-2.73-1.36-1.96-1.36-5.68v-9.64h-3.72v-8.06h3.72v-6.68h9.03v6.68h4.95v8.06h-4.95v8.26q0 .97.33 1.71t1.92.74h2.39v8.11Z"></path><rect width="17.7" height="33.56" x="-8.85" y="-16.78" fill="none" rx="0" ry="0" transform="translate(550.27 143.03)"></rect><path fill="#ff5630" d="M241.092 74.576a3.793 3.793 0 0 1-1.112-7.422c16.943-5.184 34.113-6.777 52.283-4.805l-15.325-39.146c-3.742-9.559-33.911-4.324-43.824-2.604l-2.377.404a3.796 3.796 0 1 1-1.264-7.485l2.351-.392c14.984-2.605 46.176-8.004 52.17 7.308l17.663 45.101a3.793 3.793 0 0 1-4.096 5.134c-19.422-2.934-37.528-1.72-55.356 3.742q-.569.152-1.113.165"></path><path fill="#ff5630" d="M278.635 88.18a3.793 3.793 0 0 1-2.529-6.625l19.472-17.448a3.793 3.793 0 0 1 5.07 5.639l-9.204 8.256q9.66-1.365 19.37-1.239 9.47.127 19.333 1.644l-13.428-39.79c-1.087-3.225-6.84-8.257-33.127-5.88a3.796 3.796 0 0 1-.683-7.561c15.527-1.391 36.667-1.783 40.992 11l15.476 45.898a3.793 3.793 0 0 1-4.35 4.93 132.762 132.762 0 0 0-24.314-2.654 118.854 118.854 0 0 0-31.155 3.717q-.468.126-.923.126"></path><path fill="#ff5630" d="M278.64 88.186a3.793 3.793 0 0 1-3.503-2.314l-7.991-18.878a3.796 3.796 0 1 1 6.992-2.958l7.99 18.877a3.793 3.793 0 0 1-3.489 5.273m-30.322 16.411a3.793 3.793 0 0 1-3.692-2.87L220.6 6.365a3.793 3.793 0 1 1 7.346-1.846l24.05 95.362a3.793 3.793 0 0 1-3.68 4.716"></path></svg></svg>